<?xml version="1.0" encoding="UTF-8"?>
<!DOCTYPE svg PUBLIC "-//W3C//DTD SVG 1.1//EN" "http://www.w3.org/Graphics/SVG/1.1/DTD/svg11.dtd">
<!-- Creator: CorelDRAW 2020 (64 Bit) -->
<svg xmlns="http://www.w3.org/2000/svg" xml:space="preserve" width="10.5836mm" height="10.5629mm" version="1.1" style="shape-rendering:geometricPrecision; text-rendering:geometricPrecision; image-rendering:optimizeQuality; fill-rule:evenodd; clip-rule:evenodd"
viewBox="0 0 302.9 302.31"
 xmlns:xlink="http://www.w3.org/1999/xlink"
 xmlns:xodm="http://www.corel.com/coreldraw/odm/2003">
 <defs>
  <style type="text/css">
   <![CDATA[
    .fil0 {fill:#373435}
   ]]>
  </style>
 </defs>
 <g id="Camada_x0020_1">
  <metadata id="CorelCorpID_0Corel-Layer"/>
  <g id="_2644637629024">
   <path class="fil0" d="M-0 143.17c0,23.42 1.06,34.73 8.5,56.58 1.51,4.43 3.3,9.05 5.3,13.04 8.73,17.45 14.02,25.96 26.88,40.56 0.81,0.92 1.47,1.49 2.36,2.37 1.63,1.62 2.82,2.81 4.44,4.44l14.81 12.4c18.39,13.81 39.28,22.97 62.29,27.63 6.35,1.28 12,1.87 17.56,2.12l25.28 0c13.67,0 37.7,-7.11 49.5,-12.62 21.35,-9.95 42.22,-25.07 56.91,-43.66l10.02 -13.65c3.43,-5.11 8.7,-14.45 11.11,-20.25 2.3,-5.53 7.94,-18.3 7.94,-24.01 0,-5.8 -4.13,-8.88 -10.06,-8.88 -3.49,0 -11.13,7.41 -16.56,11.24l-8.25 5.35c-3,1.81 -5.89,3.19 -9.3,4.9 -36.65,18.47 -84.44,13.42 -117.93,-10.26l-15.52 -12.87 -12.63 -15.18c-11.52,-15.92 -21.55,-40.99 -21.55,-62.46 0,-21.17 1.81,-37.37 10.84,-55.42 5.82,-11.63 8.42,-16.04 16.28,-25.72 2.94,-3.61 5.41,-4.79 5.41,-9.97 0,-5.31 -3.84,-8.87 -9.47,-8.87 -2.72,0 -10.19,2.64 -12.5,3.47 -26.1,9.38 -48.08,25.44 -66.01,46.39 -20.29,23.71 -35.67,61.85 -35.67,93.3z"/>
   <path class="fil0" d="M144.94 111.22c0,7.26 6.02,8.93 11.04,11.44 19.08,9.54 13.52,3.97 22.88,22.68 2.03,4.07 5.86,15.03 15.35,11.03 6.83,-2.88 12.09,-23.84 16.31,-26.3l13.89 -6.82c4.58,-2.29 11.64,-5.08 11.64,-11.44 0,-10.9 -18.7,-12.91 -25.98,-18.98l-7.74 -14.74c-2.62,-5.25 -4.23,-11.19 -11.35,-11.69 -7.26,-0.5 -9.08,5.83 -11.52,10.7 -9.56,19.13 -3.92,13.5 -22.68,22.88 -4.57,2.29 -11.83,4.58 -11.83,11.24z"/>
   <path class="fil0" d="M253.8 21.89l0 8.88c-7.24,0 -11.92,-1.14 -15.55,2.79 -6.55,7.07 -0.19,15.55 6.68,15.55l8.88 0c0,6.35 -0.95,11.45 2.51,15.24 5.9,6.48 15.83,1.11 15.83,-5.18l0 -10.06c5.82,0 18.34,1.47 18.34,-8.88 0,-11.35 -12.07,-9.46 -18.34,-9.46l0 -10.06c0,-10.12 -18.34,-11.85 -18.34,1.18z"/>
  </g>
 </g>
</svg>
