<?xml version="1.0" encoding="UTF-8"?>
<!DOCTYPE svg PUBLIC "-//W3C//DTD SVG 1.1//EN" "http://www.w3.org/Graphics/SVG/1.1/DTD/svg11.dtd">
<!-- Creator: CorelDRAW 2020 (64 Bit) -->
<svg xmlns="http://www.w3.org/2000/svg" xml:space="preserve" width="144.51mm" height="144.51mm" version="1.1" style="shape-rendering:geometricPrecision; text-rendering:geometricPrecision; image-rendering:optimizeQuality; fill-rule:evenodd; clip-rule:evenodd"
viewBox="0 0 1159.68 1159.68"
 xmlns:xlink="http://www.w3.org/1999/xlink"
 xmlns:xodm="http://www.corel.com/coreldraw/odm/2003">
 <defs>
  <style type="text/css">
   <![CDATA[
    .fil0 {fill:#089E05}
   ]]>
  </style>
 </defs>
 <g id="Camada_x0020_1">
  <metadata id="CorelCorpID_0Corel-Layer"/>
  <g id="_2985584307792">
   <path class="fil0" d="M-0 29.44l0 144.96c0,13.89 15.56,29.44 29.44,29.44l147.22 0c13.89,0 29.44,-15.56 29.44,-29.44l0 -38.51 135.9 0 -49.83 38.5c-43.3,33.35 -90.69,101.56 -113.22,151.78 -20.36,45.41 -30.66,87.74 -37.2,139.47 -4.7,37.21 -0.35,1.37 -43.83,44.51 -61.2,60.71 -14.08,171.6 67.41,171.6l13.59 0c47.38,0 95.13,-47.74 95.13,-95.13 0,-20.28 0.48,-25.1 -7.06,-45.04 -9.18,-24.3 -36.7,-51.78 -58.63,-56.89 2.58,-5.37 5.97,-96.89 57.52,-173.51 52.58,-78.16 122,-138.1 223.34,-161.71 24.36,36.37 46.89,54.36 95.13,54.36 41.24,0 66.23,-24.73 86.07,-54.36 101.34,23.61 170.76,83.54 223.34,161.71 51.54,76.62 54.94,168.14 57.52,173.51 -31.41,7.32 -65.68,51.1 -65.68,88.34l0 13.59c0,47.39 47.74,95.13 95.13,95.13l13.59 0c47.38,0 95.13,-47.74 95.13,-95.13 0,-43.91 -14.78,-72.43 -50.21,-94.75 -18.23,-11.48 -17.82,1.44 -21.05,-24.25 -9.92,-78.75 -27.14,-130.63 -67.85,-197.15 -18.35,-29.98 -55.58,-74.23 -81.89,-94.79l-50.8 -39.8 135.9 0 0 38.51c0,13.89 15.56,29.44 29.44,29.44l147.22 0c13.89,0 29.44,-15.56 29.44,-29.44l0 -144.96c0,-13.89 -15.56,-29.44 -29.44,-29.44l-147.22 0c-13.89,0 -29.44,15.56 -29.44,29.44l0 38.51 -278.59 0c-7.57,-32.5 -48.29,-67.95 -88.34,-67.95l-13.59 0c-40.05,0 -80.76,35.45 -88.34,67.95l-278.59 0 0 -38.51c0,-13.89 -15.56,-29.44 -29.44,-29.44l-147.22 0c-13.89,0 -29.44,15.56 -29.44,29.44z"/>
   <path class="fil0" d="M274.06 715.74c0,19.62 22.85,37.48 38.21,56.92 36.87,46.63 64.98,99.01 80.06,157.77 2.26,8.8 7.77,29.36 8.57,39 34.5,-8.04 32.55,-15.85 92.86,-15.85 41.29,0 188.83,-2.72 222.63,3.87 23.68,4.62 31.33,9.41 42.38,11.98 3.12,-37.45 31.92,-109.09 49.93,-140.33 17.07,-29.62 37.92,-56.84 60.53,-82.17 30.4,-34.05 15.38,-44.01 -13.51,-87.35l-103.29 -154.92c-23.32,-34.98 -45.53,-68.3 -68.85,-103.29 -8.97,-13.45 -63.61,-97.87 -69.76,-102.38l0 321.63c10.47,5.54 19.42,8.87 28.8,16.5 103.58,84.22 -20.18,241.28 -128.21,155.39 -38.17,-30.35 -46.31,-87.01 -19.98,-130.47 4.44,-7.33 4.39,-6.64 9.94,-12.71l3.22 -3.58c0.32,-0.34 0.79,-0.82 1.11,-1.15l7.14 -6.45c10.16,-8.51 18.57,-11.47 30.03,-17.53l0 -321.63c-7.74,5.67 -229.49,342.32 -259.12,386.4 -6.19,9.21 -12.68,16.13 -12.68,30.36z"/>
   <path class="fil0" d="M346.54 1125.7c0,19.34 14.64,33.97 33.97,33.97l398.64 0c18.11,0 33.97,-14.44 33.97,-31.71 0,-31.93 -40.31,-78 -75.44,-94.43 -9.96,-4.66 -33.53,-12.02 -46.87,-12.02l-221.97 0c-39.35,0 -84.34,29.72 -105.53,64.35 -5.08,8.3 -16.78,29.03 -16.78,39.84z"/>
   <path class="fil0" d="M545.86 711.21c0,56.9 67.95,43.38 67.95,9.06 0,-56.9 -67.95,-43.38 -67.95,-9.06z"/>
  </g>
 </g>
</svg>
