<?xml version="1.0" encoding="UTF-8"?>
<!DOCTYPE svg PUBLIC "-//W3C//DTD SVG 1.1//EN" "http://www.w3.org/Graphics/SVG/1.1/DTD/svg11.dtd">
<!-- Creator: CorelDRAW 2020 (64 Bit) -->
<svg xmlns="http://www.w3.org/2000/svg" xml:space="preserve" width="135.449mm" height="95.238mm" version="1.1" style="shape-rendering:geometricPrecision; text-rendering:geometricPrecision; image-rendering:optimizeQuality; fill-rule:evenodd; clip-rule:evenodd"
viewBox="0 0 13544.9 9523.8"
 xmlns:xlink="http://www.w3.org/1999/xlink"
 xmlns:xodm="http://www.corel.com/coreldraw/odm/2003">
 <defs>
  <style type="text/css">
   <![CDATA[
    .fil0 {fill:#A9ABAE}
   ]]>
  </style>
 </defs>
 <g id="Camada_x0020_1">
  <metadata id="CorelCorpID_0Corel-Layer"/>
  <g id="_2985810797120">
   <path class="fil0" d="M687.84 105.93c155.86,232.86 4413.08,4374.35 5046.55,5059.15l555.31 582.38c565.34,566.28 768.8,196.93 1322.71,-357.22l543.41 -567.68c59.96,-71.86 129.73,-132.06 197.16,-199.49l3002.64 -3002.64c129.49,-129.49 1427.01,-1403.67 1501.2,-1514.5 -94.5,-45.26 -283.95,-105.93 -423.25,-105.93l-11322.72 0c-139.53,0 -328.75,60.43 -423.25,105.93l0.24 0z"/>
   <path class="fil0" d="M681.31 9411.34c101.03,51.8 290.49,112.46 429.78,112.46l11322.72 0c139.53,0 328.75,-60.43 423.25,-105.93l-4093.89 -4107.19 -846.5 859.8c-381.72,381.72 -539.91,628.34 -1197.18,628.34 -623.21,0 -1017.76,-554.84 -1501.2,-1038.29 -115.5,-115.5 -351.62,-326.42 -429.78,-443.08l-4107.19 4093.89 -0.01 0z"/>
   <path class="fil0" d="M-0 1111.09l0 7301.63c0,187.59 70.23,297.02 105.93,449.85l4107.19 -4093.89 -4100.43 -4113.73c-42.23,159.36 -112.46,268.56 -112.46,456.38l-0.23 -0.24z"/>
   <path class="fil0" d="M9332.01 4755.37l4100.43 4113.73c42.23,-159.36 112.46,-268.56 112.46,-456.38l0 -7301.63c0,-187.59 -70.23,-297.02 -105.93,-449.61l-4107.19 4093.89 0.23 0z"/>
  </g>
 </g>
</svg>
