<?xml version="1.0" encoding="UTF-8"?>
<!DOCTYPE svg PUBLIC "-//W3C//DTD SVG 1.1//EN" "http://www.w3.org/Graphics/SVG/1.1/DTD/svg11.dtd">
<!-- Creator: CorelDRAW 2020 (64 Bit) -->
<svg xmlns="http://www.w3.org/2000/svg" xml:space="preserve" width="90.7465mm" height="135.45mm" version="1.1" style="shape-rendering:geometricPrecision; text-rendering:geometricPrecision; image-rendering:optimizeQuality; fill-rule:evenodd; clip-rule:evenodd"
viewBox="0 0 647.58 966.59"
 xmlns:xlink="http://www.w3.org/1999/xlink"
 xmlns:xodm="http://www.corel.com/coreldraw/odm/2003">
 <defs>
  <style type="text/css">
   <![CDATA[
    .fil4 {fill:#00BCFF}
    .fil3 {fill:#00CE7F}
    .fil1 {fill:#B559FF}
    .fil0 {fill:#FE4D12}
    .fil2 {fill:#FF7261}
   ]]>
  </style>
 </defs>
 <g id="Camada_x0020_1">
  <metadata id="CorelCorpID_0Corel-Layer"/>
  <g id="_2985587264432">
   <path class="fil0" d="M144.5 322.84l7.98 -0.02c12.72,-6.73 143.71,3.01 172.5,-2.42l0.14 -320.4 -159.83 0c-15.91,0.51 -28.55,1.34 -35.13,2.66 -110.96,22.23 -163.97,146.17 -107.1,241.49 3.07,5.15 6.28,10.48 9.75,14.8l11.17 13.37c4.35,4.96 7.48,7.52 12.85,11.69 46.82,36.37 51.26,27.41 86.31,38.3 0.32,0.1 0.94,0.28 1.35,0.54z"/>
   <path class="fil1" d="M146.39 643.76l179.35 0.62 -0 -134.66 0 -52.86 0 -134.19 -173.25 0.14 -7.98 0.02c-19.49,0.39 -43.1,11.04 -57.3,18.21 -28.99,14.65 -59.91,47.83 -72.2,78.83 -22.92,57.83 -13.56,129.52 29.89,172.46 24.66,24.38 62.71,51.44 101.49,51.43z"/>
   <path class="fil2" d="M152.49 322.82l173.25 -0.14 134.04 0.14 41.53 0.01c0.41,-0.26 1.12,-0.96 1.35,-0.54 0.3,0.54 1.86,-0.71 2.81,-0.96 12.63,-3.29 16.52,-1.71 34.7,-8.72 36.19,-13.96 59.59,-34.19 80.86,-66.39 56.89,-86.12 12.35,-216.59 -102.31,-242.85 -6.73,-1.54 -16.11,-2.62 -27.22,-3.36l-166.37 0 -0.14 320.4c-28.79,5.43 -159.78,-4.31 -172.5,2.42z"/>
   <path class="fil3" d="M325.74 644.38l-179.35 -0.62 -27.56 6.43c-135.9,38.47 -167.84,236.83 -15.86,305.07 13.36,6 27.56,9.73 42.08,11.33l33.62 0c46.38,-4.96 91.82,-30.08 119.55,-70.95 24.46,-36.06 27.52,-68.57 27.52,-112.18 0,-46.36 0,-92.72 0,-139.08z"/>
   <path class="fil4" d="M325.74 456.86l-0 52.86c4.17,6.55 5.32,42.09 37.27,77.89 62.48,70 161.37,74.96 224.61,21.64 86.63,-73.03 73.61,-196.8 -2.11,-253.58 -18.13,-13.59 -53.89,-32.86 -84.2,-32.85l-41.53 -0.01c-3.71,2.36 -26.85,5.54 -48.7,17.38l-30.17 20.8c-4.13,3.6 -5.6,3.72 -9.43,7.56l-14.48 17.62c-5.36,7.1 -8.86,12.66 -13.5,20.48 -11.82,19.9 -15.11,46.03 -17.76,50.21z"/>
  </g>
 </g>
</svg>
