<?xml version="1.0" encoding="UTF-8"?>
<!DOCTYPE svg PUBLIC "-//W3C//DTD SVG 1.1//EN" "http://www.w3.org/Graphics/SVG/1.1/DTD/svg11.dtd">
<!-- Creator: CorelDRAW 2020 (64 Bit) -->
<svg xmlns="http://www.w3.org/2000/svg" xml:space="preserve" width="153.671mm" height="146.887mm" version="1.1" style="shape-rendering:geometricPrecision; text-rendering:geometricPrecision; image-rendering:optimizeQuality; fill-rule:evenodd; clip-rule:evenodd"
viewBox="0 0 15367 14688.61"
 xmlns:xlink="http://www.w3.org/1999/xlink"
 xmlns:xodm="http://www.corel.com/coreldraw/odm/2003">
 <defs>
  <style type="text/css">
   <![CDATA[
    .fil0 {fill:#A9ABAE}
   ]]>
  </style>
 </defs>
 <g id="Camada_x0020_1">
  <metadata id="CorelCorpID_0Corel-Layer"/>
  <path class="fil0" d="M7819.03 0.11c4243.47,0 7547.97,3320.73 7547.97,7167.74 0,3847 -2274.49,6369.84 -5406.06,7340.22 -16.62,-117.36 -1.4,-267.38 -1.4,-444.31 0,-536.1 41.8,-1852.51 -68.26,-2286.22 -144.19,-568.07 -371.23,-645.08 -407.96,-782.55 612.67,0 1551.64,-307.6 1942.78,-543.96 862.79,-521.32 1303.16,-1257.23 1458.77,-2271.38 322.83,-2104.23 -664.43,-2766.18 -703.13,-2898.89 -2.28,-7.93 254.06,-993.34 79.36,-1348.01 0,-124.78 -37.11,-245.24 -69.65,-354.86l-77.84 -239.6c-32.04,-62.36 -51.51,-93 -195.57,-97.56 -52.33,-1.65 -101.5,5.65 -149.2,13.13 -534.77,84.18 -1131.24,343.57 -1576.5,645.91 -317.43,215.56 -241.63,101.75 -973.43,-21.25 -328.03,-55.13 -553.29,-78.28 -874.02,-78.34 -143.3,-0.06 -182.06,-27.59 -290.09,-27.59l-601.31 33.87c-405.17,53.6 -680.03,74.03 -1092.18,177.81 -295.87,74.54 -209.91,49.86 -440.82,-87.67 -415.06,-247.27 -1206.67,-677.75 -1729.13,-655.67 -200.78,8.5 -206.36,69.59 -301.07,441.51 -127.06,498.99 -137.47,1152.12 63.94,1571.87 -307.09,458.58 -571.18,643.18 -725.64,1417.21 -188.98,947.23 29.18,2396.98 705.92,3152.63 266.62,297.77 372.56,399.46 748.8,626.81 210.42,127.13 318.89,165.19 540.41,253.24 66.16,26.26 149.77,49.29 211.94,79.1 325.87,75.93 870.03,230.34 1216.95,238.08 -119.07,177.81 -367.93,326.57 -459.91,862.86 -26.9,157 14.34,134.87 -227.74,221.96 -776.14,279.37 -1460.29,56.97 -1909.22,-551.51 -242.96,-329.36 -246.58,-445 -640.83,-708.33 -369.9,-247.02 -941.2,-297.52 -995.12,-89.51 -36.48,140.83 338.11,352.39 499.24,479.58 44.6,35.21 75.93,51.51 116.15,95.47 672.8,735.29 494.74,1509.83 1688.91,1882.52 584.12,182.32 1022.91,36.29 1425.84,2.73 0,203.19 38.63,1331.58 -41.68,1466.19l-3.24 5.27c-3486.23,-727.99 -6105.05,-3547.89 -6105.05,-7520.88 0,-3972.92 3575.49,-7167.74 7818.96,-7167.74l0.07 0.11z"/>
 </g>
</svg>
