<?xml version="1.0" encoding="UTF-8"?>
<!DOCTYPE svg PUBLIC "-//W3C//DTD SVG 1.1//EN" "http://www.w3.org/Graphics/SVG/1.1/DTD/svg11.dtd">
<!-- Creator: CorelDRAW 2020 (64 Bit) -->
<svg xmlns="http://www.w3.org/2000/svg" xml:space="preserve" width="135.45mm" height="117.298mm" version="1.1" style="shape-rendering:geometricPrecision; text-rendering:geometricPrecision; image-rendering:optimizeQuality; fill-rule:evenodd; clip-rule:evenodd"
viewBox="0 0 834.8 722.93"
 xmlns:xlink="http://www.w3.org/1999/xlink"
 xmlns:xodm="http://www.corel.com/coreldraw/odm/2003">
 <defs>
  <style type="text/css">
   <![CDATA[
    .fil0 {fill:#FEFEFE}
   ]]>
  </style>
 </defs>
 <g id="Camada_x0020_1">
  <metadata id="CorelCorpID_0Corel-Layer"/>
  <path class="fil0" d="M417.4 668.4c-4.88,0 -52.4,-33.13 -59.66,-38.17l-138.31 -107.89 -50.54 -48.91c-3.98,-5.16 -7.47,-8.06 -11.96,-12.49l-22.71 -26.21c-64.77,-80.4 -108.42,-160.13 -70.85,-263.85 22.54,-62.22 84.87,-120.43 158.38,-120.43 52.32,0 89.51,16.96 124.32,51.77 53.68,53.67 38.65,95.86 71.34,95.88 31.9,0.02 18.7,-43.3 70.51,-95.07 35.86,-35.83 72.37,-52.58 126.77,-52.58 37.27,0 71.85,17.24 98.79,38.16 25.79,20.03 45.22,49.42 57.28,79.68 51.25,128.58 -42.44,242.11 -128.76,328.5 -8.77,8.78 -16.48,14.85 -25.25,23.67l-52.83 45c-27.71,20.52 -56.28,44.36 -85.85,64.15 -7.51,5.03 -56.16,38.79 -60.67,38.79zm-417.4 -432.07c0,58.95 7.06,79.96 29.37,130.42 3.01,6.81 6.55,11.7 9.77,17.95 10.31,19.96 30,49.07 44.39,66.48 23.25,28.14 52.5,63.75 79.12,87.19l13.85 12.24c2.47,2.49 3.98,4.21 6.5,6.54 44.46,41.12 115.7,94.08 164.94,126.91 6.22,4.15 10.31,7.15 16.76,10.96 35.97,21.22 46.33,38.11 72.27,20.68l50.89 -32.27c11.24,-7.57 21.39,-15.22 32.58,-22.85 11.3,-7.7 21.25,-15.28 32.05,-23.38 31.66,-23.75 48.49,-38.61 77.11,-61.48l28.86 -26.57c6.26,-4.99 8.85,-7.54 14.51,-13.21l79.14 -87.17c37.13,-49.76 82.68,-121.23 82.68,-194.5 0,-45.22 -4.06,-73.84 -21.15,-112.55 -10.22,-23.17 -17.86,-34.91 -32.19,-54.23 -8.86,-11.94 -23.83,-26.89 -35.19,-36.55 -2.73,-2.32 -5.28,-3.98 -8.37,-6.3 -22.28,-16.69 -48.47,-30.5 -76.66,-37.48 -73,-18.07 -133.69,-0.24 -190.06,43.29 -4.18,3.23 -16.25,14.18 -19.54,17.96 -6.9,7.96 -30.09,33.12 -32.62,44.01l-3.26 0c-1.46,-6.25 -10.34,-17.84 -14.43,-23.07 -8.21,-10.5 -25.99,-29.76 -36.79,-38.21 -75.63,-59.14 -165.47,-69.02 -249.09,-18.93l-33.54 25.16c-5.24,5.31 -9.36,9.43 -14.66,14.69 -32.41,32.11 -67.25,100.21 -67.25,164.27z"/>
 </g>
</svg>
