<?xml version="1.0" encoding="UTF-8"?>
<!DOCTYPE svg PUBLIC "-//W3C//DTD SVG 1.1//EN" "http://www.w3.org/Graphics/SVG/1.1/DTD/svg11.dtd">
<!-- Creator: CorelDRAW 2020 (64 Bit) -->
<svg xmlns="http://www.w3.org/2000/svg" xml:space="preserve" width="57.5735mm" height="57.5735mm" version="1.1" style="shape-rendering:geometricPrecision; text-rendering:geometricPrecision; image-rendering:optimizeQuality; fill-rule:evenodd; clip-rule:evenodd"
viewBox="0 0 722.72 722.72"
 xmlns:xlink="http://www.w3.org/1999/xlink"
 xmlns:xodm="http://www.corel.com/coreldraw/odm/2003">
 <defs>
  <style type="text/css">
   <![CDATA[
    .fil0 {fill:#F26312}
    .fil1 {fill:#FEFEFE;fill-rule:nonzero}
   ]]>
  </style>
 </defs>
 <g id="Camada_x0020_1">
  <metadata id="CorelCorpID_0Corel-Layer"/>
  <g id="_2985582165280">
   <rect class="fil0" x="-0" y="-0" width="722.72" height="722.72" rx="80.38" ry="80.38"/>
   <path class="fil1" d="M243.05 452.32c0,5.35 -0.22,9.59 -0.67,12.63 -0.45,3.05 -1.11,5.2 -2.08,6.54 -0.89,1.34 -2.08,1.86 -3.49,1.71 -1.34,-0.07 -3.12,-0.67 -5.28,-1.71l-167.21 -83.16c-2.01,-1.19 -3.49,-3.57 -4.46,-7.28 -0.97,-3.72 -1.41,-9.29 -1.41,-16.65 0,-3.79 0.15,-7.13 0.45,-9.96 0.3,-2.82 0.67,-5.13 1.11,-6.91 0.37,-1.86 1.04,-3.27 1.78,-4.39 0.82,-1.11 1.71,-1.93 2.75,-2.53l166.98 -82.71c4.16,-2.01 7.14,-1.63 8.92,1.19 1.71,2.82 2.6,8.55 2.6,17.24 0,5.95 -0.07,10.63 -0.3,14.12 -0.22,3.42 -0.67,6.17 -1.26,8.25 -0.52,2.01 -1.34,3.42 -2.38,4.31 -1.04,0.89 -2.38,1.71 -4.16,2.6l-125.66 58.86 123.29 57.07c2.16,1.04 3.94,2.01 5.35,3.05 1.41,1.04 2.45,2.6 3.19,4.68 0.67,2.16 1.19,4.98 1.49,8.55 0.3,3.57 0.45,8.4 0.45,14.49zm77.58 94.3c-0.74,1.86 -1.63,3.42 -2.82,4.61 -1.19,1.11 -2.82,2.08 -4.91,2.82 -2.08,0.67 -4.68,1.26 -7.8,1.63 -3.12,0.37 -7.06,0.52 -11.89,0.52 -5.95,0 -10.78,-0.3 -14.57,-0.89 -3.79,-0.59 -6.61,-1.41 -8.55,-2.6 -2.01,-1.19 -3.12,-2.68 -3.42,-4.46 -0.3,-1.78 0,-3.94 0.89,-6.39l130.2 -365.55c0.6,-1.93 1.49,-3.49 2.6,-4.68 1.19,-1.26 2.75,-2.23 4.83,-2.97 2.01,-0.67 4.68,-1.26 7.95,-1.64 3.27,-0.37 7.28,-0.52 11.89,-0.52 6.17,0 11.07,0.3 14.79,0.89 3.72,0.59 6.47,1.41 8.4,2.6 1.86,1.11 2.97,2.68 3.27,4.46 0.3,1.78 0.07,3.94 -0.67,6.39l-130.2 365.77zm343.63 -181.47c0,3.79 -0.15,7.06 -0.45,9.81 -0.3,2.75 -0.67,5.05 -1.19,6.99 -0.52,1.86 -1.19,3.34 -1.93,4.46 -0.82,1.04 -1.71,1.86 -2.75,2.3l-166.98 82.79c-2.01,1.04 -3.72,1.49 -5.2,1.34 -1.49,-0.15 -2.68,-0.97 -3.57,-2.45 -0.97,-1.41 -1.63,-3.57 -2.01,-6.39 -0.37,-2.82 -0.52,-6.46 -0.52,-10.78 0,-5.95 0.07,-10.7 0.3,-14.19 0.22,-3.49 0.67,-6.24 1.19,-8.25 0.59,-2.08 1.41,-3.57 2.45,-4.46 0.97,-0.97 2.38,-1.78 4.09,-2.53l125.29 -58.86 -122.91 -57.07c-2.3,-1.04 -4.16,-2.01 -5.5,-3.05 -1.41,-1.04 -2.45,-2.6 -3.19,-4.68 -0.67,-2.16 -1.19,-4.98 -1.41,-8.55 -0.22,-3.57 -0.3,-8.4 -0.3,-14.49 0,-5.35 0.15,-9.59 0.52,-12.63 0.37,-3.05 1.04,-5.2 2.01,-6.54 0.89,-1.34 2.08,-1.86 3.57,-1.71 1.49,0.08 3.2,0.67 5.2,1.71l167.21 83.45c1.86,0.89 3.34,3.19 4.46,6.98 1.11,3.79 1.63,9.36 1.63,16.8z"/>
  </g>
 </g>
</svg>
