<?xml version="1.0" encoding="UTF-8"?>
<!DOCTYPE svg PUBLIC "-//W3C//DTD SVG 1.1//EN" "http://www.w3.org/Graphics/SVG/1.1/DTD/svg11.dtd">
<!-- Creator: CorelDRAW 2020 (64 Bit) -->
<svg xmlns="http://www.w3.org/2000/svg" xml:space="preserve" width="57.5735mm" height="57.5735mm" version="1.1" style="shape-rendering:geometricPrecision; text-rendering:geometricPrecision; image-rendering:optimizeQuality; fill-rule:evenodd; clip-rule:evenodd"
viewBox="0 0 1005.25 1005.25"
 xmlns:xlink="http://www.w3.org/1999/xlink"
 xmlns:xodm="http://www.corel.com/coreldraw/odm/2003">
 <defs>
  <style type="text/css">
   <![CDATA[
    .fil1 {fill:#373435}
    .fil0 {fill:#FFD600}
   ]]>
  </style>
 </defs>
 <g id="Camada_x0020_1">
  <metadata id="CorelCorpID_0Corel-Layer"/>
  <g id="_2985587213408">
   <polygon class="fil0" points="-0,0 1005.25,0 1005.25,1005.25 -0,1005.25 "/>
   <path class="fil1" d="M484.49 472.67l81.73 0 0 359.21c0,31.57 -6.09,66.48 -29.86,90.57 -23.33,23.64 -57.46,30.56 -90.7,30.56 -20.3,0 -40.11,-3.64 -58.42,-11.95 -18.8,-8.54 -34.83,-21.36 -48.47,-36l-7.37 -7.91 54.3 -50.57 8.53 8.32c8.38,8.18 18.66,16.95 29.48,22.24 8.07,3.95 16.65,5.99 25.76,5.99 11.14,0 20.37,-2.78 25.94,-12.18 8.48,-14.31 9.1,-49.24 9.1,-65.27l0 -333.01zm359.38 199.37c29.46,11.7 56.62,28.57 75.5,53.06 18.11,23.48 26.04,50.52 26.04,79.33 0,41.16 -13.48,78.29 -45.79,107.19 -32.95,29.46 -74.84,40.76 -119.76,40.76 -37.02,0 -72.35,-8.18 -102.16,-29.2 -29.51,-20.8 -47.06,-49.65 -56.09,-82.7l-2.41 -8.81 73.96 -34.07 3.55 13.65c5.28,20.28 14.42,41.37 31.11,55.88 14.58,12.68 32.22,17.87 52.04,17.87 22.78,0 44.22,-5.24 61.21,-19.97 16.03,-13.89 22.61,-31.43 22.61,-51.66 0,-16.8 -4.89,-31.8 -15.99,-45.08 -12.87,-15.41 -32.1,-26.19 -50.92,-33.89l-58.27 -23.18c-28.92,-11.51 -57.02,-27.63 -76.04,-51.45 -18.03,-22.57 -25.83,-48.77 -25.83,-76.78 0,-34.77 13.97,-64.11 42.06,-87.05 29.59,-24.16 65.87,-33.87 104.85,-33.87 28.27,0 56.11,5.25 80.74,18.57 24.07,13.02 41.75,31.95 54,55.19l4.75 9.02 -66.88 39.7 -6.29 -10.23c-8.09,-13.17 -18.66,-26.13 -32.26,-34.76 -11.55,-7.32 -24.34,-10.74 -38.31,-10.74 -16.81,0 -31.97,4.23 -44.23,15.17 -11.76,10.51 -16.71,23.37 -16.71,38.47 0,12.81 4.08,24.03 12.92,33.85 11.09,12.31 28.72,21.33 44.29,27.71l68.3 28.02z"/>
  </g>
 </g>
</svg>
