<?xml version="1.0" encoding="UTF-8"?>
<!DOCTYPE svg PUBLIC "-//W3C//DTD SVG 1.1//EN" "http://www.w3.org/Graphics/SVG/1.1/DTD/svg11.dtd">
<!-- Creator: CorelDRAW 2020 (64 Bit) -->
<svg xmlns="http://www.w3.org/2000/svg" xml:space="preserve" width="12.745mm" height="12.745mm" version="1.1" style="shape-rendering:geometricPrecision; text-rendering:geometricPrecision; image-rendering:optimizeQuality; fill-rule:evenodd; clip-rule:evenodd"
viewBox="0 0 217.47 217.47"
 xmlns:xlink="http://www.w3.org/1999/xlink"
 xmlns:xodm="http://www.corel.com/coreldraw/odm/2003">
 <defs>
  <style type="text/css">
   <![CDATA[
    .fil0 {fill:#E6E7E8}
   ]]>
  </style>
 </defs>
 <g id="Camada_x0020_1">
  <metadata id="CorelCorpID_0Corel-Layer"/>
  <g id="_2644486299920">
   <path class="fil0" d="M108.31 54.37c-2.14,0.43 -4.53,-0.56 -12.24,1.35 -3.56,0.89 -6.97,1.86 -10.14,3.45 -12.94,6.51 -21.14,14.68 -27.18,27.61 -9.44,20.2 -4.1,44.91 11.86,60.92 4.63,4.64 9.84,8.05 16.17,11.01 9.17,4.29 24.34,6.04 34.65,3.07 3.62,-1.04 6.83,-1.85 10.1,-3.49 12.94,-6.51 21.13,-14.67 27.18,-27.61 2.36,-5.06 5.03,-15.59 4.54,-22.58 -0.36,-5.24 -0.42,-7.64 -1.51,-12.03 -2.67,-10.74 -7.24,-18.6 -14.89,-26.31 -7.3,-7.36 -16.29,-11.94 -26.48,-14.29 -5.15,-1.19 -4.67,-0.97 -9.12,-1.11 -0.55,-0.02 -1.14,-0.1 -1.58,-0.12 -0.14,-0.01 -0.51,-0.03 -0.63,-0.02 -0.42,0.02 -0.66,0.13 -0.74,0.15z"/>
   <path class="fil0" d="M155.46 165.23c0,5.59 1.19,6.5 4.99,10.3 2.44,2.44 4.57,4.57 7.01,7.01 3.69,3.69 6.88,7.76 13.65,5.79 5.53,-1.61 8.5,-6.86 7.45,-12.43 -0.85,-4.55 -8.59,-11 -12.82,-15.24 -3.89,-3.89 -4.76,-5.2 -10.51,-5.2 -4.84,0 -9.77,4.93 -9.77,9.77z"/>
   <path class="fil0" d="M62.01 166.92c0,-7.29 -4.18,-11.47 -11.47,-11.47 -5.18,0 -11.05,7.44 -15.61,12 -2.36,2.36 -5.21,4.5 -5.96,8.07 -1.72,8.31 5.01,14.45 12.59,13.03 4.55,-0.85 11,-8.59 15.24,-12.82 2.2,-2.2 5.2,-4.63 5.2,-8.81z"/>
   <path class="fil0" d="M50.54 62.01c7.29,0 11.47,-4.18 11.47,-11.47 0,-5.18 -7.44,-11.05 -12,-15.61 -3.69,-3.69 -6.88,-7.76 -13.65,-5.79 -3.47,1.01 -6.05,3.47 -7.19,6.84 -2.29,6.73 2.38,10.66 5.55,13.83 2.44,2.44 4.57,4.57 7.01,7.01 2.2,2.2 4.63,5.2 8.81,5.2z"/>
   <path class="fil0" d="M155.46 50.54c0,7.29 4.18,11.47 11.47,11.47 5.18,0 11.05,-7.44 15.61,-12 3.69,-3.69 7.76,-6.88 5.79,-13.65 -1.61,-5.53 -6.86,-8.5 -12.43,-7.45 -3.92,0.73 -5.78,3.36 -8.23,5.81 -4.61,4.61 -12.21,10.63 -12.21,15.82z"/>
   <path class="fil0" d="M-0 107.88c0,6.86 4.5,11.47 9.77,11.47l18.69 0c5.27,0 9.77,-4.61 9.77,-11.47 0,-4.84 -4.93,-9.77 -9.77,-9.77l-18.69 0c-4.84,0 -9.77,4.93 -9.77,9.77z"/>
   <path class="fil0" d="M179.24 107.88c0,6.86 4.5,11.47 9.77,11.47l18.69 0c5.27,0 9.77,-4.61 9.77,-11.47 0,-4.84 -4.93,-9.77 -9.77,-9.77l-18.69 0c-4.84,0 -9.77,4.93 -9.77,9.77z"/>
   <path class="fil0" d="M98.12 9.77l0 18.69c0,5.27 4.61,9.77 11.47,9.77 4.84,0 9.77,-4.93 9.77,-9.77l0 -18.69c0,-5.27 -4.61,-9.77 -11.47,-9.77 -4.84,0 -9.77,4.93 -9.77,9.77z"/>
   <path class="fil0" d="M98.12 189.01l0 18.69c0,5.27 4.61,9.77 11.47,9.77 4.84,0 9.77,-4.93 9.77,-9.77l0 -18.69c0,-5.27 -4.61,-9.77 -11.47,-9.77 -4.84,0 -9.77,4.93 -9.77,9.77z"/>
  </g>
 </g>
</svg>
