<?xml version="1.0" encoding="UTF-8"?>
<!DOCTYPE svg PUBLIC "-//W3C//DTD SVG 1.1//EN" "http://www.w3.org/Graphics/SVG/1.1/DTD/svg11.dtd">
<!-- Creator: CorelDRAW 2020 (64 Bit) -->
<svg xmlns="http://www.w3.org/2000/svg" xml:space="preserve" width="143.941mm" height="143.943mm" version="1.1" style="shape-rendering:geometricPrecision; text-rendering:geometricPrecision; image-rendering:optimizeQuality; fill-rule:evenodd; clip-rule:evenodd"
viewBox="0 0 14394.12 14394.35"
 xmlns:xlink="http://www.w3.org/1999/xlink"
 xmlns:xodm="http://www.corel.com/coreldraw/odm/2003">
 <defs>
  <style type="text/css">
   <![CDATA[
    .fil0 {fill:#A9ABAE}
   ]]>
  </style>
 </defs>
 <g id="Camada_x0020_1">
  <metadata id="CorelCorpID_0Corel-Layer"/>
  <path class="fil0" d="M2164.7 5763.63l2136.61 0 0 6466.24 -2136.61 0 0 -6466.24zm5735.08 2839.45l0 3626.55 -2136.61 0 0 -6466.24 2136.61 0 0 843.5c99.91,-36.14 69.06,-52.72 164.37,-173.12 170.13,-214.56 367.88,-342.56 583.13,-485.06 1401.77,-928.45 3581.89,234.82 3581.89,2232.38l0 4048.3 -2136.61 0 0 -3626.55c0,-1685.62 -2192.78,-1685.85 -2192.78,0l0 0.24zm-3373.55 -5369.73c0,1447.12 -1980.07,1739.49 -2462.59,522.81 -441.55,-1113.08 577.61,-2134.54 1692.3,-1692.3 400.34,158.85 770.29,625.72 770.29,1169.48l0 0.01zm-4526.23 -1911.69l0 11751.49c0,181.41 79.65,384.46 139.97,506.7 38.45,78.27 68.83,139.28 124.55,212.72 33.61,44.2 45.58,52.95 76.43,92.32 125.01,159.08 265.21,265.21 454.9,360.28 134.21,67.22 338.64,149.18 525.58,149.18l11751.49 0c181.41,0 384.46,-79.65 506.7,-139.97 190.39,-93.7 164.37,-90.47 305.03,-200.98 151.48,-119.02 91.39,-66.76 232.75,-245.18 54.1,-68.37 85.18,-125.01 127.54,-209.72 67.22,-134.21 149.18,-338.64 149.18,-525.58l0 -11751.49c0,-295.82 -213.87,-705.14 -415.07,-906.35l-380.77 -265.9c-134.21,-67.22 -338.64,-149.18 -525.58,-149.18l-11751.49 0c-316.77,0 -584.97,162.76 -811.73,340.95 -267.74,210.18 -509.46,627.79 -509.46,980.48l-0.02 0.23z"/>
 </g>
</svg>
