<?xml version="1.0" encoding="UTF-8"?>
<!DOCTYPE svg PUBLIC "-//W3C//DTD SVG 1.1//EN" "http://www.w3.org/Graphics/SVG/1.1/DTD/svg11.dtd">
<!-- Creator: CorelDRAW 2020 (64 Bit) -->
<svg xmlns="http://www.w3.org/2000/svg" xml:space="preserve" width="8.0871mm" height="10.7241mm" version="1.1" style="shape-rendering:geometricPrecision; text-rendering:geometricPrecision; image-rendering:optimizeQuality; fill-rule:evenodd; clip-rule:evenodd"
viewBox="0 0 27.91 37.01"
 xmlns:xlink="http://www.w3.org/1999/xlink"
 xmlns:xodm="http://www.corel.com/coreldraw/odm/2003">
 <defs>
  <style type="text/css">
   <![CDATA[
    .fil0 {fill:#FEFEFE}
   ]]>
  </style>
 </defs>
 <g id="Camada_x0020_1">
  <metadata id="CorelCorpID_0Corel-Layer"/>
  <path class="fil0" d="M-0 13.16l0 1.37c0,3.55 2.1,8.63 4.15,11.68 0.98,1.46 2.71,4.04 3.86,5.25l4.72 4.97c0.14,0.11 0.17,0.16 0.31,0.27 0.3,0.25 0.56,0.31 0.97,0.31l0.02 0c0.81,0 1.74,-1.2 2.51,-1.97l3.21 -3.59c0.36,-0.44 0.68,-0.83 1.02,-1.29 0.33,-0.45 0.64,-0.82 0.97,-1.27l1.84 -2.71c2.01,-3 4.32,-7.97 4.32,-11.65 0,-1.35 0.06,-1.45 -0.17,-2.8 -0.22,-1.32 -0.59,-2.63 -1.18,-3.8 -0.69,-1.37 -1.33,-2.36 -2.36,-3.43 -0.18,-0.19 -0.21,-0.3 -0.4,-0.47 -1.85,-1.7 -3.92,-2.98 -6.38,-3.6 -3.52,-0.88 -7.34,-0.43 -10.43,1.42 -0.37,0.22 -0.68,0.38 -1.02,0.64 -0.34,0.26 -0.61,0.45 -0.95,0.71l-2.39 2.59c-0.48,0.64 -0.88,1.35 -1.25,2.08 -0.19,0.38 -0.36,0.74 -0.5,1.17 -0.08,0.23 -0.15,0.39 -0.22,0.58 -0.27,0.74 -0.66,2.66 -0.66,3.53zm13.95 7.45c-1.82,0 -3.47,-0.76 -4.64,-1.93 -3.32,-3.32 -2.37,-8.69 1.87,-10.74 2.4,-1.16 5.55,-0.57 7.42,1.31 1.98,1.99 2.54,4.9 1.43,7.39 -1.05,2.33 -3.35,3.98 -6.07,3.98z"/>
 </g>
</svg>
