<?xml version="1.0" encoding="UTF-8"?>
<!DOCTYPE svg PUBLIC "-//W3C//DTD SVG 1.1//EN" "http://www.w3.org/Graphics/SVG/1.1/DTD/svg11.dtd">
<!-- Creator: CorelDRAW 2020 (64 Bit) -->
<svg xmlns="http://www.w3.org/2000/svg" xml:space="preserve" width="135.45mm" height="135.45mm" version="1.1" style="shape-rendering:geometricPrecision; text-rendering:geometricPrecision; image-rendering:optimizeQuality; fill-rule:evenodd; clip-rule:evenodd"
viewBox="0 0 755.36 755.36"
 xmlns:xlink="http://www.w3.org/1999/xlink"
 xmlns:xodm="http://www.corel.com/coreldraw/odm/2003">
 <defs>
  <style type="text/css">
   <![CDATA[
    .fil0 {fill:#952121}
   ]]>
  </style>
 </defs>
 <g id="Camada_x0020_1">
  <metadata id="CorelCorpID_0Corel-Layer"/>
  <g id="_2985812753648">
   <path class="fil0" d="M399.81 19.18l0 97.37c0,9.13 4.45,15.39 10.72,18.79 10.54,5.7 46.47,7.26 88.08,31.42l35.68 24.81c13.71,11.04 33.82,33.52 43.46,48.01 57.3,86.18 57.82,189.11 0.59,275.31 -9.23,13.9 -29.59,36.15 -42.43,47.56 -15.31,13.6 -37.18,26.54 -55.91,35.56 -91.1,43.87 -80.18,-24.17 -80.18,138.17 0,9.07 8.8,19.18 22.13,19.18 34.76,0 104.06,-24.75 132.71,-41.37 18.62,-10.81 35.58,-21.23 52.55,-34.49 23.52,-18.36 47.16,-42.29 65.74,-65.56 6.58,-8.23 12.73,-16.66 18.69,-25.57 6.2,-9.28 11.04,-18.02 16.6,-27.66l14.68 -29.58c21.48,-44.2 32.3,-98.18 32.46,-152.23l0 -1.55c-0.04,-53.92 -10.69,-107.83 -31.96,-152.1 -16.29,-33.9 -25.55,-51.91 -49.18,-82.12 -52.11,-66.61 -130.83,-120.01 -214.03,-137.1 -15.02,-3.09 -24.34,-6.01 -41.2,-6.01 -9.05,0 -19.18,10.13 -19.18,19.18z"/>
   <path class="fil0" d="M267.03 241.95l0 271.46c0,11.99 10.76,19.18 25.08,19.18 8.07,0 115.27,-66.62 124.2,-72.01l91.27 -54.78c18.18,-10.88 25,-12.23 25,-31.06 0,-12.59 -15.29,-19.38 -24.07,-24.61l-183.48 -110.11c-16.58,-9.89 -23.57,-17.24 -38.82,-17.24 -9.05,0 -19.18,10.13 -19.18,19.18z"/>
   <path class="fil0" d="M-0 333.42c0,13.33 10.11,22.13 19.18,22.13l97.37 0c16.45,0 20.69,-12.14 23.24,-25.45 6.11,-32.03 19.17,-62.19 36.96,-88.44 13.16,-19.42 8.77,-25.91 -8.93,-43.6 -7.49,-7.49 -13.9,-13.9 -21.39,-21.39 -13.73,-13.73 -33.14,-37.99 -47.58,-37.99 -17.02,0 -26.22,17.93 -38.06,35.7 -27.19,40.78 -60.78,112.08 -60.78,159.04z"/>
   <path class="fil0" d="M-0 418.99c0,34.18 18.59,86.48 33.71,115.29 10.01,19.07 14.29,27.53 26.48,45.81 11.96,17.93 21.52,36.59 38.65,36.59 14.37,0 33.23,-23.64 46.84,-37.25 63.57,-63.57 37.74,-34.21 5.62,-114.06 -4.93,-12.26 -8.57,-24.94 -11.29,-38.87 -2.35,-12.03 -5.28,-26.69 -23.47,-26.69l-97.37 0c-9.05,0 -19.18,10.13 -19.18,19.18z"/>
   <path class="fil0" d="M138.68 97.37c0,16.46 21.37,32.43 37.25,48.32 63.54,63.54 34.2,37.77 114.06,5.62 11.68,-4.7 25.68,-8.71 38.87,-11.29 7.42,-1.45 13.03,-2.15 18.75,-6.33 4.51,-3.3 7.94,-9.79 7.94,-17.14l0 -97.37c0,-9.07 -8.8,-19.18 -22.13,-19.18 -17.64,0 -45.39,7.59 -59.95,12.34 -45.27,14.78 -82.25,35.23 -119.84,63.1 -7.05,5.23 -14.95,9.97 -14.95,21.93z"/>
   <path class="fil0" d="M138.68 656.51c0,17.02 17.93,26.22 35.7,38.06 18.63,12.42 27.1,16.94 46.92,26.85 30.33,15.16 79.27,33.93 115.07,33.93 9.05,0 19.18,-10.13 19.18,-19.18l0 -97.37c0,-16.45 -12.14,-20.7 -25.45,-23.24 -26.84,-5.12 -50.14,-14.66 -72.94,-27.38 -6.38,-3.56 -9.74,-5.68 -15.5,-9.58 -2.14,-1.45 -5.28,-3.76 -7.13,-4.67 -16.5,-8.09 -25.65,2.77 -36.47,13.6l-42.78 42.78c-6.75,6.75 -16.6,13.65 -16.6,26.19z"/>
  </g>
 </g>
</svg>
