<?xml version="1.0" encoding="UTF-8"?>
<!DOCTYPE svg PUBLIC "-//W3C//DTD SVG 1.1//EN" "http://www.w3.org/Graphics/SVG/1.1/DTD/svg11.dtd">
<!-- Creator: CorelDRAW 2020 (64 Bit) -->
<svg xmlns="http://www.w3.org/2000/svg" xml:space="preserve" width="49.1862mm" height="50.9286mm" version="1.1" style="shape-rendering:geometricPrecision; text-rendering:geometricPrecision; image-rendering:optimizeQuality; fill-rule:evenodd; clip-rule:evenodd"
viewBox="0 0 422.73 437.7"
 xmlns:xlink="http://www.w3.org/1999/xlink"
 xmlns:xodm="http://www.corel.com/coreldraw/odm/2003">
 <defs>
  <style type="text/css">
   <![CDATA[
    .fil0 {fill:#12A2F2}
   ]]>
  </style>
 </defs>
 <g id="Camada_x0020_1">
  <metadata id="CorelCorpID_0Corel-Layer"/>
  <path class="fil0" d="M155.94 347.94c4.24,-0.35 23.96,-8.61 28.51,-10.82 30,-14.56 24.32,-14.52 40.74,-6.28 6.87,3.45 35.63,16.58 41.89,17.1 -1.39,5.97 -6.01,14.54 -8.83,20.23 -5.56,11.2 -15.32,24.89 -25.72,32.41 -22.4,16.17 -41.96,4.74 -56.57,-14.52 -12.12,-15.98 -13.58,-23.73 -20.01,-38.12zm53.86 -174.4c-7.06,1.7 -16.6,-1.6 -31.86,14.3 -6.46,6.73 -13.62,20.02 -12.14,33.06 1.62,14.18 4.29,21.52 14.7,31.52 17.88,17.16 48.02,16.23 64.55,-2.59 17.67,-20.11 16.05,-46.81 -2.54,-64.56 -7.78,-7.42 -22.73,-14.14 -32.72,-11.73zm-0.09 -173.54l3.61 0c17.6,0.59 35.11,9.79 50.09,27.61 17.65,21 18.84,31.15 28.46,49.33 4.36,-2.09 24.7,-6.38 30.13,-7.48 24.72,-5.01 61.39,-7.05 82,8.2 25.72,19.04 20.62,45.9 10.25,71.21 -3.18,7.75 -9.89,18.79 -14.49,25.7 -5.69,8.53 -10.84,15.24 -17.15,23.03l-14.43 16.35c-1.87,1.85 -3.12,2.85 -4.5,4.91l9.61 10.91c13.83,14.87 33.17,40.08 40.95,59.07 4.7,11.46 8.42,20.75 8.42,35.17 0,31.52 -28.7,47.87 -60.7,47.87 -36.15,0 -41.23,-4.39 -70.1,-11.11 -2.15,4.07 -4.28,8.89 -6.23,13.43 -4.97,11.61 -14.39,26.57 -22.23,35.9 -14.98,17.81 -32.5,27.02 -50.09,27.61l-3.61 0c-17.6,-0.59 -35.11,-9.79 -50.09,-27.61 -6.21,-7.38 -11.05,-14.67 -15.91,-23.41 -5.62,-10.13 -7.97,-17.26 -12.55,-25.92 -4.63,1.08 -10.34,2.92 -14.7,4.11 -27.36,7.46 -73.46,12.92 -97.43,-4.83 -47.07,-34.85 4.79,-100.85 31.12,-130.73l9.2 -10.46 -23.95 -27.34c-14.98,-19.63 -35.04,-49.76 -35.04,-75.24 0,-34.15 27.15,-50.44 60.7,-50.44 18.94,0 38.49,2.18 56.07,7.2 3.7,1.05 11.41,2.66 14.03,3.92 9.49,-17.94 10.79,-28.32 28.46,-49.33 14.98,-17.81 32.5,-27.02 50.09,-27.61zm145.42 344.52c-33.53,0 -49.4,-8.61 -58.99,-9.4 1.12,-2.34 3.09,-10.62 3.94,-14.01 5.24,-21.02 6.93,-32.55 9.47,-53.79 0.56,-4.69 -0.7,-4.62 2.16,-7.24l5.21 -4.19c5.38,-4.54 21.37,-16.92 24.53,-21.64 5.81,3.89 27.82,31.63 31.13,36.41 20.39,29.51 38.52,73.87 -17.45,73.87zm-324.85 -24.79c0,-20.59 15.97,-43.46 26.74,-57.89 6.29,-8.43 9.3,-11.38 15.8,-18.4 1.82,-1.97 2,-2.76 3.83,-4.72 1.77,-1.89 2.65,-2.37 4.07,-4.48l29.61 25.1c3.96,2.96 2.6,4.35 3.89,14.92 1.15,9.41 8.19,51.53 12.67,60.85 -3.16,0.26 -8.6,2.15 -12.31,3.07 -19.25,4.81 -66.79,14.07 -80.53,-5.98 -1.61,-2.34 -3.75,-9.03 -3.75,-12.49zm244.5 7.69c-10.44,-2.43 -32.27,-13.94 -38.47,-15.39l0 -1.71c3.03,-0.81 9.65,-5.21 12.65,-7.01l36.07 -22.91c-2.8,12.03 -3.74,20.88 -7.35,35.39 -0.92,3.68 -2.65,8.48 -2.91,11.63zm-136.78 -47.02l23.9 15.42c5.51,3.29 20.25,13.27 24.83,14.49l0 1.71c-5.69,1.33 -29.85,13.38 -38.47,15.39 -0.26,-3.09 -1.88,-7.48 -2.73,-10.94l-7.52 -36.07zm-4.28 -56.43l0.86 -36.76 46.52 -31.27c4.75,-2.91 28.42,-17.08 30.41,-17.08 1.97,0 24.76,13.74 29.34,16.45 11.1,6.56 46.23,31.18 47.6,31.9l0.86 36.76c0,9.96 -0.86,16.64 -0.86,26.5 -4.7,2.49 -12.78,9.12 -18.12,12.65 -3.38,2.24 -5.75,4.11 -9.05,6.34l-19.35 12.28c-3.81,2.34 -6.18,4.03 -10.18,6.06 -28.21,14.26 -11.99,14.67 -39.89,0.28 -18.83,-9.7 -50.47,-34 -57.28,-37.61 0,-9.87 -0.86,-16.54 -0.86,-26.5zm178.67 6.84l0 -23.93 12.82 11.97 -12.82 11.97zm-214.57 -11.97l12.82 -11.97 0 23.93 -12.82 -11.97zm138.49 -93.18c5.69,-1.33 29.85,-13.38 38.47,-15.39l5.63 22.59c1.82,8.29 2.78,16.51 4.63,24.43 -4.69,-2.48 -7.47,-5.15 -11.79,-7.87l-24.28 -15.04c-3.01,-1.8 -9.62,-6.2 -12.65,-7.01l0 -1.71zm-98.31 31.63c2.8,-12.03 3.74,-20.88 7.35,-35.39 0.92,-3.68 2.65,-8.48 2.91,-11.63 10.44,2.43 32.27,13.94 38.47,15.39l-18.65 12.12c-2.24,1.44 -4.05,2.81 -6.18,4.08 -4.19,2.5 -7.82,4.87 -12.1,7.56 -4.32,2.71 -7.1,5.39 -11.79,7.87zm158.15 -54.71c9.42,-0.78 25.51,-9.4 58.99,-9.4 26.73,0 41.72,10.43 36.11,35.25 -1.82,8.04 -3.87,11.37 -6.67,18.12 -6.09,14.67 -17.31,28.04 -27.47,40.07 -3.34,3.95 -12.01,14.41 -15.65,16.84 -3.46,-5.17 -22.35,-19.72 -28.86,-25 -3.74,-3.03 -2.79,-5.97 -3.78,-15.03 -1.69,-15.52 -4.77,-30.9 -8.57,-46.14 -0.8,-3.24 -2.83,-11.85 -4.1,-14.7zm-215.43 100.87l-23.33 -27.11c-2.59,-3.47 -4.9,-6.29 -7.29,-9.81 -10.85,-16.01 -32.38,-52.15 -9.42,-67.24 16.7,-10.98 55.91,-5.08 73.94,0.16 3.19,0.93 9.44,2.89 12.26,3.12l-13.57 68.49c-0.37,4.7 0.61,4.44 -2.48,6.93l-10.45 8.36c-3.35,2.61 -6.37,5.33 -9.6,8.35l-10.05 8.75zm186.37 -113.7c-9.8,0.82 -53.01,23.08 -55.57,23.08 -2.66,0 -46.04,-22.29 -55.57,-23.08 2.78,-11.95 17.26,-36.34 26.7,-45.97 2.64,-2.69 4.68,-4.38 7.86,-6.68 33.74,-24.36 61.07,15.32 72.55,42.14 1.59,3.7 3.13,6.65 4.03,10.5z"/>
 </g>
</svg>
